<svg width="360" height="82" viewBox="0 0 360 82" fill="none" xmlns="http://www.w3.org/2000/svg">
<path d="M112.346 13.4095C111.024 8.49607 107.15 4.62205 102.236 3.29921C93.2598 0.842522 57.3543 0.842522 57.3543 0.842522C57.3543 0.842522 21.4488 0.842522 12.4724 3.20473C7.65354 4.52756 3.68504 8.49607 2.3622 13.4095C0 22.3858 0 41 0 41C0 41 0 59.7087 2.3622 68.5905C3.68504 73.5039 7.55905 77.378 12.4724 78.7008C21.5433 81.1575 57.3543 81.1575 57.3543 81.1575C57.3543 81.1575 93.2598 81.1575 102.236 78.7953C107.15 77.4724 111.024 73.5984 112.346 68.685C114.709 59.7087 114.709 41.0945 114.709 41.0945C114.709 41.0945 114.803 22.3858 112.346 13.4095Z" fill="#FF0000"/>
<path d="M45.9213 23.8031V58.1969L75.7795 41L45.9213 23.8031Z" fill="white"/>
<path d="M166.583 73.9764C164.315 72.4646 162.709 70.1024 161.764 66.7953C160.819 63.5827 160.346 59.2362 160.346 53.9449V46.6693C160.346 41.2835 160.913 36.937 161.953 33.6299C163.087 30.3228 164.787 27.9606 167.055 26.4488C169.417 24.937 172.441 24.1811 176.22 24.1811C179.906 24.1811 182.929 24.937 185.197 26.4488C187.465 27.9606 189.071 30.4173 190.11 33.6299C191.15 36.8425 191.717 41.189 191.717 46.6693V53.9449C191.717 59.3307 191.244 63.5827 190.205 66.8898C189.165 70.1024 187.559 72.5591 185.291 74.0709C183.024 75.5827 179.906 76.3386 176.031 76.3386C172.063 76.2441 168.85 75.4882 166.583 73.9764ZM179.339 66.0394C180 64.4331 180.283 61.6929 180.283 58.0079V42.3228C180.283 38.7323 180 36.0866 179.339 34.3858C178.677 32.685 177.638 31.9291 176.031 31.9291C174.52 31.9291 173.386 32.7795 172.819 34.3858C172.157 36.0866 171.874 38.7323 171.874 42.3228V58.0079C171.874 61.6929 172.157 64.4331 172.819 66.0394C173.386 67.6457 174.52 68.4961 176.126 68.4961C177.638 68.4961 178.677 67.7402 179.339 66.0394Z" fill="#282828"/>
<path d="M341.008 54.0394V56.5905C341.008 59.8031 341.102 62.2598 341.291 63.8661C341.48 65.4724 341.858 66.7008 342.52 67.3622C343.087 68.1181 344.031 68.4961 345.354 68.4961C347.055 68.4961 348.189 67.8346 348.85 66.5118C349.512 65.189 349.795 63.0157 349.89 59.8976L359.622 60.4646C359.717 60.937 359.717 61.5039 359.717 62.2598C359.717 66.8898 358.488 70.3858 355.937 72.6535C353.386 74.9213 349.795 76.0551 345.165 76.0551C339.591 76.0551 335.717 74.2598 333.449 70.7638C331.181 67.2677 330.047 61.8819 330.047 54.5118V45.7244C330.047 38.1654 331.181 32.685 333.543 29.189C335.905 25.6929 339.874 23.9921 345.449 23.9921C349.323 23.9921 352.346 24.748 354.425 26.1654C356.504 27.5827 357.921 29.8504 358.772 32.7795C359.622 35.8031 360 39.9606 360 45.252V53.8504H341.008V54.0394ZM342.425 32.874C341.858 33.6299 341.48 34.7638 341.291 36.3701C341.102 37.9764 341.008 40.4331 341.008 43.7402V47.3307H349.323V43.7402C349.323 40.5276 349.228 38.0709 349.039 36.3701C348.85 34.6693 348.378 33.5354 347.811 32.874C347.244 32.2126 346.299 31.8346 345.165 31.8346C343.842 31.7402 342.992 32.1181 342.425 32.874Z" fill="#282828"/>
<path d="M138.992 53.0945L126.142 6.51181H137.386L141.921 27.5827C143.055 32.7795 143.905 37.2205 144.472 40.9055H144.756C145.134 38.2598 145.984 33.9134 147.307 27.6772L152.031 6.51181H163.276L150.236 53.0945V75.3937H139.087V53.0945H138.992Z" fill="#282828"/>
<path d="M228.283 25.126V75.4882H219.402L218.457 69.3465H218.173C215.811 73.9764 212.126 76.3386 207.307 76.3386C204 76.3386 201.543 75.2047 199.937 73.0315C198.331 70.8583 197.575 67.4567 197.575 62.7323V25.126H208.913V62.0709C208.913 64.3386 209.197 65.9449 209.669 66.8898C210.142 67.8346 210.992 68.3071 212.126 68.3071C213.071 68.3071 214.016 68.0236 214.961 67.3622C215.906 66.7953 216.567 66.0394 216.945 65.0945V25.126H228.283Z" fill="#282828"/>
<path d="M286.394 25.126V75.4882H277.512L276.567 69.3465H276.283C273.921 73.9764 270.236 76.3386 265.417 76.3386C262.11 76.3386 259.654 75.2047 258.047 73.0315C256.441 70.8583 255.685 67.4567 255.685 62.7323V25.126H267.024V62.0709C267.024 64.3386 267.307 65.9449 267.78 66.8898C268.252 67.8346 269.102 68.3071 270.236 68.3071C271.181 68.3071 272.126 68.0236 273.071 67.3622C274.016 66.7953 274.677 66.0394 275.055 65.0945V25.126H286.394Z" fill="#282828"/>
<path d="M259.087 15.6772H247.842V75.3937H236.787V15.6772H225.543V6.51181H259.087V15.6772Z" fill="#282828"/>
<path d="M323.905 33.1575C323.244 29.9449 322.11 27.6772 320.598 26.2598C319.087 24.8425 316.913 24.0866 314.268 24.0866C312.189 24.0866 310.205 24.6535 308.409 25.8819C306.614 27.0157 305.197 28.622 304.252 30.5118H304.157V3.96063H293.197V75.3937H302.551L303.685 70.6693H303.968C304.819 72.3701 306.142 73.6929 307.937 74.7323C309.732 75.6772 311.622 76.2441 313.795 76.2441C317.669 76.2441 320.409 74.4488 322.205 70.9528C324 67.4567 324.945 61.8819 324.945 54.4173V46.4803C324.85 40.7165 324.567 36.2756 323.905 33.1575ZM313.512 53.6614C313.512 57.3465 313.323 60.1811 313.039 62.2598C312.756 64.3386 312.189 65.8504 311.528 66.7008C310.772 67.5512 309.827 68.0236 308.693 68.0236C307.748 68.0236 306.898 67.8346 306.142 67.3622C305.386 66.8898 304.724 66.2284 304.252 65.378V36.8425C304.63 35.5197 305.291 34.3858 306.236 33.4409C307.181 32.5906 308.22 32.1181 309.26 32.1181C310.394 32.1181 311.339 32.5906 311.906 33.4409C312.567 34.3858 312.945 35.8976 313.228 37.9764C313.512 40.1496 313.606 43.1732 313.606 47.0472V53.6614H313.512Z" fill="#282828"/>
</svg>
